Walking05_kinetics.mot
version=1
nRows=40
nColumns=19
inDegrees=yes
endheader
time	1_ground_force_vx	1_ground_force_vy	1_ground_force_vz	1_ground_force_px	1_ground_force_py	1_ground_force_pz	2_ground_force_vx	2_ground_force_vy	2_ground_force_vz	2_ground_force_px	2_ground_force_py	2_ground_force_pz	1_ground_torque_x	1_ground_torque_y	1_ground_torque_z	2_ground_torque_x	2_ground_torque_y	2_ground_torque_z
  0.73500000	  0.00000000	  0.00000000	  0.00000000	 -0.30048871	 -0.00042294	  0.20058549	-16.63841055	444.48349885	 29.38813321	  0.42025759	  0.00262674	  0.00639080	  0.00000000	  0.00000000	  0.00000000	  0.00218040	 -1.67311847	  0.00005528
  0.73600000	  0.00000000	  0.00000000	  0.00000000	 -0.30048871	 -0.00042294	  0.20058549	-16.49696120	442.58268263	 29.27269444	  0.42111235	  0.00262786	  0.00635639	  0.00000000	  0.00000000	  0.00000000	  0.00219631	 -1.68532711	  0.00005568
  0.73700000	  0.00000000	  0.00000000	  0.00000000	 -0.30048871	 -0.00042294	  0.20058549	-16.35161185	440.75769458	 29.15239980	  0.42195159	  0.00262895	  0.00632854	  0.00000000	  0.00000000	  0.00000000	  0.00221747	 -1.70156573	  0.00005622
  0.73800000	  0.00000000	  0.00000000	  0.00000000	 -0.30048871	 -0.00042294	  0.20058549	-16.19897289	439.00239941	 29.03055644	  0.42277026	  0.00263001	  0.00630846	  0.00000000	  0.00000000	  0.00000000	  0.00224364	 -1.72164479	  0.00005688
  0.73900000	  0.00000000	  0.00000000	  0.00000000	 -0.30048871	 -0.00042294	  0.20058549	-16.03514094	437.31495638	 28.90989314	  0.42356410	  0.00263105	  0.00629489	  0.00000000	  0.00000000	  0.00000000	  0.00227444	 -1.74527617	  0.00005766
  0.74000000	  0.00000000	  0.00000000	  0.00000000	 -0.30048871	 -0.00042294	  0.20058549	-15.85651706	435.69849883	 28.79208182	  0.42433040	  0.00263205	  0.00628488	  0.00000000	  0.00000000	  0.00000000	  0.00230942	 -1.77211619	  0.00005855
  0.74100000	  0.00000000	  0.00000000	  0.00000000	 -0.30048871	 -0.00042294	  0.20058549	-15.66110053	434.15843031	 28.67785511	  0.42506917	  0.00263301	  0.00627546	  0.00000000	  0.00000000	  0.00000000	  0.00234785	 -1.80160955	  0.00005952
  0.74200000	  0.00000000	  0.00000000	  0.00000000	 -0.30048871	 -0.00042294	  0.20058549	-15.44975674	432.69826580	 28.56740809	  0.42578391	  0.00263394	  0.00626530	  0.00000000	  0.00000000	  0.00000000	  0.00238851	 -1.83281253	  0.00006056
  0.74300000	  0.00000000	  0.00000000	  0.00000000	 -0.30048871	 -0.00042294	  0.20058549	-15.22694652	431.31591962	 28.46081986	  0.42648129	  0.00263485	  0.00625563	  0.00000000	  0.00000000	  0.00000000	  0.00242961	 -1.86434898	  0.00006160
  0.74400000	  0.00000000	  0.00000000	  0.00000000	 -0.30048871	 -0.00042294	  0.20058549	-15.00047830	430.00216953	 28.35836106	  0.42716985	  0.00263575	  0.00625018	  0.00000000	  0.00000000	  0.00000000	  0.00246897	 -1.89454932	  0.00006260
  0.74500000	  0.00000000	  0.00000000	  0.00000000	 -0.30048871	 -0.00042294	  0.20058549	-14.77982237	428.74304366	 28.26059650	  0.42785811	  0.00263664	  0.00625376	  0.00000000	  0.00000000	  0.00000000	  0.00250448	 -1.92179903	  0.00006350
  0.74600000	  0.00000000	  0.00000000	  0.00000000	 -0.30048871	 -0.00042294	  0.20058549	-14.57337843	427.52548467	 28.16829585	  0.42855245	  0.00263755	  0.00626998	  0.00000000	  0.00000000	  0.00000000	  0.00253471	 -1.94499436	  0.00006426
  0.74700000	  0.00000000	  0.00000000	  0.00000000	 -0.30048871	 -0.00042294	  0.20058549	-14.38638721	426.34253793	 28.08228277	  0.42925554	  0.00263847	  0.00629968	  0.00000000	  0.00000000	  0.00000000	  0.00255917	 -1.96376080	  0.00006488
  0.74800000	  0.00000000	  0.00000000	  0.00000000	 -0.30048871	 -0.00042294	  0.20058549	-14.22067341	425.19521803	 28.00331159	  0.42996612	  0.00263939	  0.00634104	  0.00000000	  0.00000000	  0.00000000	  0.00257802	 -1.97822551	  0.00006536
  0.74900000	  0.00000000	  0.00000000	  0.00000000	 -0.30048871	 -0.00042294	  0.20058549	-14.07554735	424.09147523	 27.93192329	  0.43067988	  0.00264033	  0.00639078	  0.00000000	  0.00000000	  0.00000000	  0.00259158	 -1.98863473	  0.00006570
  0.75000000	  0.00000000	  0.00000000	  0.00000000	 -0.30048871	 -0.00042294	  0.20058549	-13.94870283	423.04355182	 27.86819261	  0.43139147	  0.00264125	  0.00644511	  0.00000000	  0.00000000	  0.00000000	  0.00260019	 -1.99524296	  0.00006592
  0.75100000	  0.00000000	  0.00000000	  0.00000000	 -0.30048871	 -0.00042294	  0.20058549	-13.83675232	422.06463386	 27.81144132	  0.43209704	  0.00264218	  0.00650028	  0.00000000	  0.00000000	  0.00000000	  0.00260444	 -1.99850402	  0.00006603
  0.75200000	  0.00000000	  0.00000000	  0.00000000	 -0.30048871	 -0.00042294	  0.20058549	-13.73547856	421.16628668	 27.76023416	  0.43279582	  0.00264309	  0.00655300	  0.00000000	  0.00000000	  0.00000000	  0.00260539	 -1.99922901	  0.00006605
  0.75300000	  0.00000000	  0.00000000	  0.00000000	 -0.30048871	 -0.00042294	  0.20058549	-13.63990779	420.35767731	 27.71282155	  0.43348973	  0.00264399	  0.00660104	  0.00000000	  0.00000000	  0.00000000	  0.00260441	 -1.99847661	  0.00006603
  0.75400000	  0.00000000	  0.00000000	  0.00000000	 -0.30048871	 -0.00042294	  0.20058549	-13.54438137	419.64577355	 27.66763275	  0.43418194	  0.00264490	  0.00664362	  0.00000000	  0.00000000	  0.00000000	  0.00260287	 -1.99729869	  0.00006599
  0.75500000	  0.00000000	  0.00000000	  0.00000000	 -0.30048871	 -0.00042294	  0.20058549	-13.44282526	419.03524550	 27.62326826	  0.43487542	  0.00264580	  0.00668122	  0.00000000	  0.00000000	  0.00000000	  0.00260192	 -1.99656484	  0.00006597
  0.75600000	  0.00000000	  0.00000000	  0.00000000	 -0.30048871	 -0.00042294	  0.20058549	-13.32925504	418.52794545	 27.57805093	  0.43557197	  0.00264671	  0.00671484	  0.00000000	  0.00000000	  0.00000000	  0.00260237	 -1.99691129	  0.00006598
  0.75700000	  0.00000000	  0.00000000	  0.00000000	 -0.30048871	 -0.00042294	  0.20058549	-13.19839142	418.12291500	 27.52985424	  0.43627193	  0.00264762	  0.00674561	  0.00000000	  0.00000000	  0.00000000	  0.00260474	 -1.99873527	  0.00006604
  0.75800000	  0.00000000	  0.00000000	  0.00000000	 -0.30048871	 -0.00042294	  0.20058549	-13.04625530	417.81741610	 27.47666196	  0.43697450	  0.00264854	  0.00677506	  0.00000000	  0.00000000	  0.00000000	  0.00260924	 -2.00218452	  0.00006615
  0.75900000	  0.00000000	  0.00000000	  0.00000000	 -0.30048871	 -0.00042294	  0.20058549	-12.87060835	417.60777590	 27.41737705	  0.43767834	  0.00264946	  0.00680569	  0.00000000	  0.00000000	  0.00000000	  0.00261575	 -2.00717738	  0.00006632
  0.76000000	  0.00000000	  0.00000000	  0.00000000	 -0.30048871	 -0.00042294	  0.20058549	-12.67109216	417.48837902	 27.35213160	  0.43838202	  0.00265038	  0.00684072	  0.00000000	  0.00000000	  0.00000000	  0.00262401	 -2.01351770	  0.00006653
  0.76100000	  0.00000000	  0.00000000	  0.00000000	 -0.30048871	 -0.00042294	  0.20058549	-12.44901071	417.44950749	 27.28199866	  0.43908414	  0.00265129	  0.00688318	  0.00000000	  0.00000000	  0.00000000	  0.00263385	 -2.02107119	  0.00006678
  0.76200000	  0.00000000	  0.00000000	  0.00000000	 -0.30048871	 -0.00042294	  0.20058549	-12.20672141	417.47777092	 27.20854919	  0.43978316	  0.00265221	  0.00693488	  0.00000000	  0.00000000	  0.00000000	  0.00264528	 -2.02983828	  0.00006707
  0.76300000	  0.00000000	  0.00000000	  0.00000000	 -0.30048871	 -0.00042294	  0.20058549	-11.94669395	417.56123206	 27.13358446	  0.44047700	  0.00265311	  0.00699599	  0.00000000	  0.00000000	  0.00000000	  0.00265830	 -2.03983003	  0.00006740
  0.76400000	  0.00000000	  0.00000000	  0.00000000	 -0.30048871	 -0.00042294	  0.20058549	-11.67068762	417.69538936	 27.05901431	  0.44116263	  0.00265401	  0.00706515	  0.00000000	  0.00000000	  0.00000000	  0.00267273	 -2.05090495	  0.00006776
  0.76500000	  0.00000000	  0.00000000	  0.00000000	 -0.30048871	 -0.00042294	  0.20058549	-11.37960098	417.88450844	 26.98674288	  0.44183577	  0.00265489	  0.00713994	  0.00000000	  0.00000000	  0.00000000	  0.00268823	 -2.06279646	  0.00006815
  0.76600000	  0.00000000	  0.00000000	  0.00000000	 -0.30048871	 -0.00042294	  0.20058549	-11.07403835	418.13779678	 26.91857753	  0.44249107	  0.00265575	  0.00721754	  0.00000000	  0.00000000	  0.00000000	  0.00270453	 -2.07530255	  0.00006857
  0.76700000	  0.00000000	  0.00000000	  0.00000000	 -0.30048871	 -0.00042294	  0.20058549	-10.75518505	418.46438031	 26.85635982	  0.44312296	  0.00265657	  0.00729536	  0.00000000	  0.00000000	  0.00000000	  0.00272149	 -2.08832265	  0.00006900
  0.76800000	  0.00000000	  0.00000000	  0.00000000	 -0.30048871	 -0.00042294	  0.20058549	-10.42558323	418.87013675	 26.80237840	  0.44372725	  0.00265736	  0.00737117	  0.00000000	  0.00000000	  0.00000000	  0.00273876	 -2.10156772	  0.00006944
  0.76900000	  0.00000000	  0.00000000	  0.00000000	 -0.30048871	 -0.00042294	  0.20058549	-10.08942260	419.35635741	 26.75964131	  0.44430255	  0.00265811	  0.00744328	  0.00000000	  0.00000000	  0.00000000	  0.00275530	 -2.11426089	  0.00006985
  0.77000000	  0.00000000	  0.00000000	  0.00000000	 -0.30048871	 -0.00042294	  0.20058549	 -9.75195144	419.91935051	 26.73144328	  0.44485034	  0.00265883	  0.00751112	  0.00000000	  0.00000000	  0.00000000	  0.00276967	 -2.12528825	  0.00007022
  0.77100000	  0.00000000	  0.00000000	  0.00000000	 -0.30048871	 -0.00042294	  0.20058549	 -9.41815127	420.55083714	 26.72035054	  0.44537368	  0.00265951	  0.00757596	  0.00000000	  0.00000000	  0.00000000	  0.00278072	 -2.13377049	  0.00007050
  0.77200000	  0.00000000	  0.00000000	  0.00000000	 -0.30048871	 -0.00042294	  0.20058549	 -9.09152959	421.23959083	 26.72755600	  0.44587584	  0.00266017	  0.00764078	  0.00000000	  0.00000000	  0.00000000	  0.00278819	 -2.13950079	  0.00007069
  0.77300000	  0.00000000	  0.00000000	  0.00000000	 -0.30048871	 -0.00042294	  0.20058549	 -8.77365642	421.97444023	 26.75326384	  0.44635983	  0.00266080	  0.00770875	  0.00000000	  0.00000000	  0.00000000	  0.00279256	 -2.14285687	  0.00007080
  0.77400000	  0.00000000	  0.00000000	  0.00000000	 -0.30048871	 -0.00042294	  0.20058549	 -8.46424356	422.74738546	 26.79766851	  0.44682843	  0.00266142	  0.00778132	  0.00000000	  0.00000000	  0.00000000	  0.00279455	 -2.14438281	  0.00007085
